# xmcd
#
# Track frame offsets:
#	150
#	10651
#	23212
#	39104
#	53024
#	65118
#	77691
#	89996
#	101383
#	116689
#	128461
#	139537
#
# Disc length: 2049 seconds
# Revision: 0
# Processed by: cddbd v1.5.2PL0 Copyright (c) Steve Scherf et al.
# Submitted via: dBpowerAMP V12.0
#
DISCID=9107ff0c
DTITLE=Rich In Tradition - Black Mountain Special
DYEAR=2010
DGENRE=Bluegrass
TTITLE0=Black Mountain Special
TTITLE1=Weather's Got To Change
TTITLE2=Red And Green Signal Lights
TTITLE3=Let's All Go Down To The River
TTITLE4=Prillaman's Switch
TTITLE5=I've Just Seen The Rock Of Ages
TTITLE6=Only One You're Calling Baby
TTITLE7=Swinging Bridge
TTITLE8=Now I'm Losing You
TTITLE9=Poor Ellen Smith
TTITLE10=Preachin' Prayin' Singin'
TTITLE11=Lost, Heartbroke And Lonesome
EXTD=
EXTT0=
EXTT1=
EXTT2=
EXTT3=
EXTT4=
EXTT5=
EXTT6=
EXTT7=
EXTT8=
EXTT9=
EXTT10=
EXTT11=
PLAYORDER=
